<svg id="_0524_facebook" xmlns="http://www.w3.org/2000/svg" viewBox="0 0 500 500" data-imageid="facebook-15" imageName="Facebook" class="illustrations_image" style="width: 166px;"><defs><style>.cls-1_facebook-15{opacity:.45;}.cls-1_facebook-15,.cls-2_facebook-15,.cls-3_facebook-15,.cls-4_facebook-15{fill:none;}.cls-5_facebook-15{fill:#fff;}.cls-6_facebook-15{fill:#f4a28c;}.cls-7_facebook-15{fill:#e6e6e6;}.cls-2_facebook-15{opacity:.2;}.cls-8_facebook-15{fill:#24285b;}.cls-9_facebook-15{fill:#ffd200;}.cls-3_facebook-15{opacity:.1;}.cls-4_facebook-15{opacity:.49;}.cls-10_facebook-15{fill:#fefefe;}.cls-11_facebook-15{fill:#68e1fd;}</style></defs><g id="bg_facebook-15" class="cls-1_facebook-15"><path class="cls-7_facebook-15" d="m185.96,78.02C72.31,71.55-11.47,194.13,30.51,308.44c7.16,19.5,17.78,37.72,32.91,53.41,93.12,96.55,292.6,63.92,354.57,13.6,61.97-50.32,87.38-202.8,31.77-250.82-69.2-59.77-160.61-40.73-263.79-46.61Z"/></g><g id="phone_fb_facebook-15"><path class="cls-6_facebook-15" d="m410.67,313.6s-25.01-117.69-87.96-117.69-96.43,185,56.69,205.13l31.27-87.44Z"/><g class="cls-3_facebook-15"><path d="m410.67,313.6s-25.01-117.69-87.96-117.69-96.43,185,56.69,205.13l31.27-87.44Z"/></g><rect class="cls-8_facebook-15" x="157.74" y="22.27" width="182.19" height="326.75"/><rect class="cls-5_facebook-15" x="172.82" y="59.52" width="150.8" height="229.96"/><g class="cls-2_facebook-15"><circle class="cls-5_facebook-15" cx="249.39" cy="318.92" r="17.83"/></g><g class="cls-2_facebook-15"><rect class="cls-5_facebook-15" x="233.42" y="35.04" width="51.08" height="7.45"/></g><g class="cls-2_facebook-15"><circle class="cls-5_facebook-15" cx="214.92" cy="39.58" r="8.32"/></g><rect class="cls-11_facebook-15 targetColor" x="185.11" y="196.03" width="126.21" height="93.44" style="fill: rgb(104, 225, 253);"/><g class="cls-4_facebook-15"><rect class="cls-5_facebook-15" x="230.4" y="236.28" width="12.56" height="18.95" transform="translate(-2.34 2.28) rotate(-.55)"/></g><path class="cls-5_facebook-15" d="m242.88,237.67s8.14-3.89,10.53-11.04c.8-2.39,4.25-2.47,5.25-.16.55,1.28.76,2.94.23,5.08-1.78,7.23,6,2.83,7.88,5.9,1.88,3.07,7.81,20.11-23.74,16.29l-.15-16.07Z"/><rect class="cls-7_facebook-15" x="185.11" y="161.94" width="24.48" height="22.54"/><rect class="cls-7_facebook-15" x="221.82" y="161.94" width="57.93" height="6.34"/><rect class="cls-7_facebook-15" x="221.82" y="174.95" width="79.31" height="6.34"/><rect class="cls-11_facebook-15 targetColor" x="172.82" y="59.52" width="150.8" height="26.26" style="fill: rgb(104, 225, 253);"/><rect class="cls-8_facebook-15" x="189.28" y="66.69" width="109.83" height="11.9" rx="3.66" ry="3.66"/><circle class="cls-5_facebook-15" cx="313.42" cy="72.64" r="4.18"/><circle class="cls-7_facebook-15" cx="196.32" cy="100.81" r="9.04"/><circle class="cls-7_facebook-15" cx="222.27" cy="100.81" r="9.04"/><circle class="cls-7_facebook-15" cx="248.22" cy="100.81" r="9.04"/><circle class="cls-7_facebook-15" cx="274.17" cy="100.81" r="9.04"/><circle class="cls-7_facebook-15" cx="300.11" cy="100.81" r="9.04"/><rect class="cls-7_facebook-15" x="172.82" y="115.86" width="150.8" height="2.07"/><rect class="cls-7_facebook-15" x="172.82" y="147.19" width="150.8" height="2.07"/><circle class="cls-9_facebook-15" cx="203" cy="94.28" r="3.6"/><circle class="cls-9_facebook-15" cx="254.39" cy="94.28" r="3.6"/><circle class="cls-9_facebook-15" cx="197.94" cy="132.19" r="8.66"/><rect class="cls-7_facebook-15" x="218" y="125.6" width="94.27" height="13.19" rx="4.06" ry="4.06"/><path class="cls-6_facebook-15" d="m361.36,269.89s-48.59-49.69-69.57-45.27c-17.31,3.64-17.33,38.1,20.39,66.79,15.48,11.77,25.23,29.41,26.53,48.81,1.07,16.04,6.36,35.11,22.64,49.53,34.23,30.31,59.63,3.9,56.32-37-3.31-40.9-5.52-53.05-56.32-82.86Z"/><polygon class="cls-11_facebook-15 targetColor" points="332.59 477.73 329.41 397.91 422.16 369.8 443.71 477.73 332.59 477.73" style="fill: rgb(104, 225, 253);"/><g class="cls-3_facebook-15"><polygon points="332.59 477.73 329.41 397.91 373.69 384.49 381.01 477.73 332.59 477.73"/></g><path class="cls-6_facebook-15" d="m256.16,336.21c-4.02,8.11-9.56,15.83-13.91,21.82-15.44,21.3-36.96,36.53-58.41,51.25-4.97,3.41-10.07,6.77-14.16,11.21-8.41,9.14-9.25,24.54-12.32,36.22,0,0-97.35-2.31-95.53-5.2,8.84-14.04,12.49-35.17,11.84-51.55-.81-20.32-4.13-38.38,3-58.29,7.72-21.55,25.14-39.06,48.25-40.37,5.48-.31,10.82-2.12,16.35-2.47,7.99-.5,16.78.06,23.07-4.88,3.14-2.47,5.21-6.04,7.11-9.56,7.72-14.37,13.8-29.59,22.21-43.59,4.95-8.24,20.86-25.3,28.64-9.65,2.57,5.19,1.8,11.34.83,17.05-2.95,17.33-7.15,34.45-12.57,51.18-1.68,5.17-10.3,23.42-6.73,28.28,4.22,5.75,15.74-5.33,19.5-7.67,7.95-4.94,16.52-13.44,25.74-15.7,6.02-1.48,11.74,4.63,12.3,10.81.6,6.74-1.73,14.07-5.22,21.11Z"/><polygon class="cls-11_facebook-15 targetColor" points="170.18 426 162.03 468.3 46.8 468.3 70.08 416.94 128.54 422.23 170.18 426" style="fill: rgb(104, 225, 253);"/><g class="cls-3_facebook-15"><path d="m170.18,426l-8.14,42.3h-50.14c5.98-16.57,12.16-33.65,16.65-46.07l41.63,3.77Z"/></g></g><g id="fb_facebook-15"><path class="cls-11_facebook-15 targetColor" d="m146.33,177.29v-57.99c0-6.23-5.05-11.29-11.29-11.29H46.95c-6.23,0-11.29,5.05-11.29,11.29v57.99c0,6.23,5.05,11.29,11.29,11.29h70.87l26.14,16.97-8.26-17c5.93-.34,10.63-5.24,10.63-11.25Z" style="fill: rgb(104, 225, 253);"/><path class="cls-10_facebook-15" d="m104.97,139.09c-2.3,0-4.61,0-6.91,0-.22,0-.44.09-.65-.03-.07-.05-.07-.11-.06-.18,0-1.44,0-2.88.02-4.32,0-.29-.04-.58.06-.86,0-1.6.65-2.38,2.18-2.57.03.04.05.04.06-.01.09-.02.19-.04.28-.05,1.66-.08,3.33-.03,5-.03.38,0,.5-.1.5-.49-.01-2.66-.02-5.33,0-8,0-.37-.12-.47-.47-.47-2.43.02-4.86.01-7.29.03-3.72.02-7.62,1.2-9.55,4.63-1.21,2.15-1.56,4.92-1.57,7.35,0,1.55,0,3.09,0,4.64,0,.1-.02.21.02.31-.07.1-.17.07-.27.07-1.54,0-3.08,0-4.61-.01-.31,0-.43.08-.43.42.01,2.7,0,5.4,0,8.11,0,.16-.04.34.16.43.14.09.3.04.45.04,1.43,0,2.86,0,4.29,0,.26,0,.39.03.38.36-.01,8.35,0,16.7,0,25.05,0,.13-.06.28.06.39h.03s.03,0,.03,0c0,.03,0,.05,0,.08h10.67s-.01-.06-.02-.09c0-.1.02-.19.02-.29,0-8.41,0-16.81,0-25.22,0-.11-.07-.25.08-.33.07.05.16.04.24.04,2.17,0,4.34,0,6.51,0,.08,0,.17.02.24-.05.12-.1.1-.25.12-.38.29-2.69.58-5.37.88-8.06.05-.5.06-.5-.45-.5Z"/></g></svg>