<svg version="1.1" id="Layer_1" xmlns="http://www.w3.org/2000/svg" xmlns:xlink="http://www.w3.org/1999/xlink" x="0px" y="0px" viewBox="0 0 500 500" style="width: 166px;" xml:space="preserve" data-imageid="python-37" imageName="Python" class="illustrations_image">
<style type="text/css">
	.st0_python-37{fill:#68E1FD;}
	.st1_python-37{fill:#231F20;}
	.st2_python-37{fill:#FFFFFF;}
	.st3_python-37{fill:#D1D3D4;}
</style>
<g id="Phyton_Snake_python-37">
	<path class="st0_python-37 targetColor" d="M437.2,341.2c-8.7,9-24.8,8.3-40.8,4.3c-7.9-2.1-15.6-4.6-23.1-7.7c-7.8-3.2-15.4-6.7-22.8-10.7l10.2-40.2&#xA;&#9;&#9;c4.4,4.1,9,8,13.8,11.7c9.5,7.2,22.6,15.5,35.3,18.4c1.4,0.3,2.7,0.5,4,0.7c24.9,3.1,10.5-40.2,0-47.3s17.8-4.7,26.5,8.7&#xA;&#9;&#9;S458.5,319.2,437.2,341.2z" style="fill: rgb(104, 225, 253);"/>
	<path class="st1_python-37" d="M409.8,316.9l-13.4,28.6c-7.9-2.1-15.6-4.6-23.1-7.7l1.2-39.2C384,305.7,397.1,314.1,409.8,316.9z"/>
</g>
<g id="Laptop_python-37">
	<path class="st2_python-37" d="M102.8,165.4h269.1c11.1,0,20.1,9,20.1,20.1v164.3l0,0H82.7l0,0V185.6C82.7,174.4,91.7,165.4,102.8,165.4&#xA;&#9;&#9;L102.8,165.4z"/>
	<path class="st1_python-37" d="M392,350.5H82.7c-0.4,0-0.6-0.3-0.6-0.6l0,0V185.6c0-11.5,9.3-20.8,20.8-20.8h269.1c11.5,0,20.8,9.3,20.8,20.8&#xA;&#9;&#9;v164.3C392.7,350.2,392.4,350.5,392,350.5C392,350.5,392,350.5,392,350.5z M83.3,349.2h308.1V185.6c0-10.8-8.7-19.5-19.5-19.5&#xA;&#9;&#9;H102.8c-10.8,0-19.5,8.7-19.5,19.5V349.2z"/>
	<path class="st3_python-37" d="M285.1,350.7c-0.4,0-0.7-0.3-0.7-0.7v0V182c0-0.4,0.3-0.7,0.7-0.7c0.4,0,0.7,0.3,0.7,0.7v168&#xA;&#9;&#9;C285.7,350.4,285.4,350.7,285.1,350.7z"/>
	<path class="st3_python-37" d="M372.7,350.6H102c-0.4,0-0.7-0.3-0.7-0.7l0,0V181.9c0-0.4,0.3-0.7,0.7-0.7h270.7c0.4,0,0.7,0.3,0.7,0.7&#xA;&#9;&#9;c0,0,0,0,0,0v168C373.4,350.3,373.1,350.6,372.7,350.6z M102.7,349.2H372V182.6H102.7L102.7,349.2z"/>
	<path class="st1_python-37" d="M417.8,350.6h-361c-0.4,0-0.7-0.3-0.7-0.7s0.3-0.7,0.7-0.7h361c0.4,0,0.7,0.3,0.7,0.7S418.3,350.6,417.8,350.6&#xA;&#9;&#9;L417.8,350.6z"/>
	<path class="st2_python-37" d="M50.5,349.9h373.7l0,0l0,0c0,12.3-10,22.4-22.4,22.4h-329C60.5,372.2,50.5,362.2,50.5,349.9L50.5,349.9&#xA;&#9;&#9;L50.5,349.9L50.5,349.9z"/>
	<path class="st1_python-37" d="M401.8,372.9h-329c-12.7,0-23-10.3-23-23l0,0c0-0.4,0.3-0.6,0.6-0.6c0,0,0,0,0,0h373.7c0.4,0,0.6,0.3,0.6,0.6&#xA;&#9;&#9;v0C424.8,362.6,414.5,372.9,401.8,372.9L401.8,372.9z M51.1,350.5c0.4,11.7,10,21.1,21.7,21.1h329c11.7,0,21.3-9.3,21.7-21.1&#xA;&#9;&#9;L51.1,350.5z"/>
	<rect x="207" y="349.9" class="st1_python-37" width="60.6" height="5.6"/>
	<path class="st3_python-37" d="M372.7,279.1h-87.6c-0.4,0-0.7-0.3-0.7-0.7c0-0.4,0.3-0.7,0.7-0.7h87.6c0.4,0,0.7,0.3,0.7,0.7&#xA;&#9;&#9;C373.4,278.8,373.1,279.1,372.7,279.1z"/>
	<path class="st3_python-37" d="M285.1,311.4H104.5c-0.4,0-0.7-0.3-0.7-0.7c0-0.4,0.3-0.7,0.7-0.7c0,0,0,0,0,0h180.5c0.4,0,0.7,0.3,0.7,0.7&#xA;&#9;&#9;S285.5,311.4,285.1,311.4C285.1,311.4,285.1,311.4,285.1,311.4z"/>
	<path class="st1_python-37" d="M363.9,190.7h-65.4c-0.4,0-0.6-0.3-0.6-0.6c0-0.4,0.3-0.6,0.6-0.6c0,0,0,0,0,0h65.4c0.4,0,0.6,0.3,0.6,0.6&#xA;&#9;&#9;C364.5,190.4,364.3,190.7,363.9,190.7C363.9,190.7,363.9,190.7,363.9,190.7z"/>
	<path class="st3_python-37" d="M352.1,199.5h-53.6c-0.4,0-0.7-0.3-0.7-0.7c0-0.4,0.3-0.7,0.7-0.7h53.6c0.4,0,0.7,0.3,0.7,0.7&#xA;&#9;&#9;C352.8,199.2,352.5,199.5,352.1,199.5z"/>
	<path class="st1_python-37" d="M363.9,208.2h-65.4c-0.4,0-0.6-0.3-0.6-0.6c0-0.4,0.3-0.6,0.6-0.6c0,0,0,0,0,0h65.4c0.4,0,0.6,0.3,0.6,0.6&#xA;&#9;&#9;C364.5,207.9,364.3,208.2,363.9,208.2C363.9,208.2,363.9,208.2,363.9,208.2z"/>
	<path class="st3_python-37" d="M358.4,217h-59.9c-0.4,0-0.7-0.3-0.7-0.7c0-0.4,0.3-0.7,0.7-0.7h59.9c0.4,0,0.7,0.3,0.7,0.7&#xA;&#9;&#9;C359.1,216.7,358.8,217,358.4,217z"/>
	<path class="st3_python-37" d="M363.9,225.7h-65.4c-0.4,0-0.7-0.3-0.7-0.7c0-0.4,0.3-0.7,0.7-0.7h65.4c0.4,0,0.7,0.3,0.7,0.7&#xA;&#9;&#9;C364.6,225.4,364.3,225.7,363.9,225.7z"/>
	<path class="st1_python-37" d="M345,234.3h-46.5c-0.4,0-0.6-0.3-0.6-0.6c0-0.4,0.3-0.6,0.6-0.6c0,0,0,0,0,0H345c0.4,0,0.6,0.3,0.6,0.6&#xA;&#9;&#9;C345.6,234,345.4,234.3,345,234.3z"/>
	<path class="st3_python-37" d="M363.9,243.1h-65.4c-0.4,0-0.7-0.3-0.7-0.7s0.3-0.7,0.7-0.7c0,0,0,0,0,0h65.4c0.4,0,0.7,0.3,0.7,0.7&#xA;&#9;&#9;C364.6,242.8,364.3,243.1,363.9,243.1z"/>
	<path class="st1_python-37" d="M350.5,251.8h-52c-0.4,0-0.6-0.3-0.6-0.6c0-0.4,0.3-0.6,0.6-0.6c0,0,0,0,0,0h52c0.4,0,0.6,0.3,0.6,0.6&#xA;&#9;&#9;C351.1,251.5,350.9,251.8,350.5,251.8z"/>
	<path class="st3_python-37" d="M342.6,260.5h-44.1c-0.4,0-0.7-0.3-0.7-0.7s0.3-0.7,0.7-0.7c0,0,0,0,0,0h44.1c0.4,0,0.7,0.3,0.7,0.7&#xA;&#9;&#9;S343,260.5,342.6,260.5C342.6,260.5,342.6,260.5,342.6,260.5z"/>
	<path class="st3_python-37" d="M350.5,269.3h-52c-0.4,0-0.7-0.3-0.7-0.7c0-0.4,0.3-0.7,0.7-0.7h52c0.4,0,0.7,0.3,0.7,0.7&#xA;&#9;&#9;S350.9,269.3,350.5,269.3C350.5,269.3,350.5,269.3,350.5,269.3z"/>
	<path class="st3_python-37" d="M141,199.5h-15c-0.4,0-0.7-0.3-0.7-0.7c0-0.4,0.3-0.7,0.7-0.7h15c0.4,0,0.7,0.3,0.7,0.7&#xA;&#9;&#9;C141.7,199.2,141.4,199.5,141,199.5z"/>
	<path class="st1_python-37" d="M178.7,199.4h-29.8c-0.4,0-0.6-0.3-0.6-0.6s0.3-0.6,0.6-0.6h29.8c0.4,0,0.6,0.3,0.6,0.6&#xA;&#9;&#9;C179.3,199.1,179,199.4,178.7,199.4C178.7,199.4,178.7,199.4,178.7,199.4L178.7,199.4z"/>
	<path class="st1_python-37" d="M187.6,208h-29.8c-0.4,0-0.6-0.3-0.6-0.6c0-0.4,0.3-0.6,0.6-0.6h29.8c0.4,0,0.6,0.3,0.6,0.6S188,208,187.6,208&#xA;&#9;&#9;z"/>
	<path class="st3_python-37" d="M144.5,208.1h-15c-0.4,0-0.7-0.3-0.7-0.7c0-0.4,0.3-0.7,0.7-0.7h15c0.4,0,0.7,0.3,0.7,0.7&#xA;&#9;&#9;C145.2,207.8,144.9,208.1,144.5,208.1C144.5,208.1,144.5,208.1,144.5,208.1z"/>
	<path class="st3_python-37" d="M145.1,216.7h-12c-0.4,0-0.7-0.3-0.7-0.7c0-0.4,0.3-0.7,0.7-0.7c0,0,0,0,0,0h12c0.4,0,0.7,0.3,0.7,0.7&#xA;&#9;&#9;C145.8,216.4,145.5,216.7,145.1,216.7C145.1,216.7,145.1,216.7,145.1,216.7z"/>
	<path class="st1_python-37" d="M193,216.7h-37.4c-0.4,0-0.6-0.3-0.7-0.6c0,0,0,0,0,0c0-0.4,0.3-0.6,0.6-0.6H193c0.4,0,0.6,0.3,0.6,0.6&#xA;&#9;&#9;C193.6,216.4,193.4,216.6,193,216.7C193,216.6,193,216.6,193,216.7L193,216.7z"/>
	<path class="st3_python-37" d="M151.5,225.3h-14.9c-0.4,0-0.7-0.3-0.7-0.7c0-0.4,0.3-0.7,0.7-0.7h14.9c0.4,0,0.7,0.3,0.7,0.7&#xA;&#9;&#9;C152.2,225,151.9,225.3,151.5,225.3z"/>
	<path class="st1_python-37" d="M200.7,225.3h-44.4c-0.4,0-0.6-0.3-0.6-0.6s0.3-0.6,0.6-0.6h44.4c0.4,0,0.6,0.3,0.6,0.6&#xA;&#9;&#9;S201.1,225.3,200.7,225.3z"/>
	<path class="st3_python-37" d="M147.5,234h-14.9c-0.4,0-0.7-0.3-0.7-0.7c0-0.4,0.3-0.7,0.7-0.7c0,0,0,0,0,0h14.9c0.4,0,0.7,0.3,0.7,0.7&#xA;&#9;&#9;C148.2,233.7,147.9,234,147.5,234z"/>
	<path class="st1_python-37" d="M177.3,233.9h-24.1c-0.4,0-0.6-0.3-0.6-0.6c0-0.4,0.3-0.6,0.6-0.6c0,0,0,0,0,0h24.1c0.4,0,0.6,0.3,0.6,0.6&#xA;&#9;&#9;C178,233.6,177.7,233.9,177.3,233.9C177.3,233.9,177.3,233.9,177.3,233.9z"/>
	<path class="st1_python-37" d="M210.6,233.9h-24.1c-0.4,0-0.6-0.3-0.6-0.6c0-0.4,0.3-0.6,0.6-0.6c0,0,0,0,0,0h24.1c0.4,0,0.6,0.3,0.6,0.6&#xA;&#9;&#9;C211.2,233.6,211,233.9,210.6,233.9C210.6,233.9,210.6,233.9,210.6,233.9z"/>
	<path class="st3_python-37" d="M137.7,242.6h-5.1c-0.4,0-0.7-0.3-0.7-0.7c0-0.4,0.3-0.7,0.7-0.7c0,0,0,0,0,0h5.1c0.4,0,0.7,0.3,0.7,0.7&#xA;&#9;&#9;C138.4,242.3,138.1,242.6,137.7,242.6C137.7,242.6,137.7,242.6,137.7,242.6z"/>
	<path class="st1_python-37" d="M177.3,242.5h-30.8c-0.4,0-0.6-0.3-0.6-0.6s0.3-0.6,0.6-0.6h30.8c0.4,0,0.6,0.3,0.6,0.6&#xA;&#9;&#9;S177.7,242.5,177.3,242.5z"/>
	<path class="st1_python-37" d="M189.5,242.5h-8.6c-0.4,0-0.6-0.3-0.6-0.6s0.3-0.6,0.6-0.6h8.6c0.4,0,0.6,0.3,0.6,0.6&#xA;&#9;&#9;C190.1,242.2,189.8,242.5,189.5,242.5z"/>
	<path class="st3_python-37" d="M140.7,251.2h-8.1c-0.4,0-0.7-0.3-0.7-0.7c0-0.4,0.3-0.7,0.7-0.7c0,0,0,0,0,0h8.1c0.4,0,0.7,0.3,0.7,0.7&#xA;&#9;&#9;C141.4,250.9,141.1,251.2,140.7,251.2C140.7,251.2,140.7,251.2,140.7,251.2z"/>
	<path class="st1_python-37" d="M184.9,251.2h-36.6c-0.4,0-0.6-0.3-0.6-0.6c0-0.4,0.3-0.6,0.6-0.6c0,0,0,0,0,0h36.6c0.4,0,0.6,0.3,0.6,0.6&#xA;&#9;&#9;C185.5,250.9,185.2,251.2,184.9,251.2C184.9,251.2,184.9,251.2,184.9,251.2z"/>
	<path class="st1_python-37" d="M203.4,251.2h-14.9c-0.4,0-0.6-0.3-0.6-0.6c0-0.4,0.3-0.6,0.6-0.6c0,0,0,0,0,0h14.9c0.4,0,0.6,0.3,0.6,0.6&#xA;&#9;&#9;C204.1,250.9,203.8,251.2,203.4,251.2C203.4,251.2,203.4,251.2,203.4,251.2z"/>
	<path class="st3_python-37" d="M137,259.9h-7.9c-0.4,0-0.7-0.3-0.7-0.7c0-0.4,0.3-0.7,0.7-0.7h7.9c0.4,0,0.7,0.3,0.7,0.7&#xA;&#9;&#9;C137.7,259.5,137.4,259.8,137,259.9z"/>
	<path class="st1_python-37" d="M180.9,259.8h-34.6c-0.4,0-0.6-0.3-0.6-0.6l0,0c0-0.4,0.3-0.6,0.6-0.6h0h34.6c0.4,0,0.6,0.3,0.6,0.6l0,0&#xA;&#9;&#9;C181.5,259.5,181.2,259.8,180.9,259.8L180.9,259.8z"/>
	<path class="st3_python-37" d="M144,268.5h-14.9c-0.4,0-0.7-0.3-0.7-0.7c0-0.4,0.3-0.7,0.7-0.7H144c0.4,0,0.7,0.3,0.7,0.7&#xA;&#9;&#9;C144.7,268.2,144.4,268.5,144,268.5C144,268.5,144,268.5,144,268.5z"/>
	<path class="st3_python-37" d="M161.1,277.1h-29.8c-0.4,0-0.7-0.3-0.7-0.7c0-0.4,0.3-0.7,0.7-0.7h29.8c0.4,0,0.7,0.3,0.7,0.7&#xA;&#9;&#9;C161.8,276.8,161.5,277.1,161.1,277.1C161.1,277.1,161.1,277.1,161.1,277.1z"/>
	<path class="st1_python-37" d="M189.5,277h-20.7c-0.4,0-0.6-0.3-0.6-0.6l0,0c0-0.4,0.3-0.6,0.6-0.6h0h20.7c0.4,0,0.6,0.3,0.6,0.6&#xA;&#9;&#9;C190.1,276.7,189.8,277,189.5,277L189.5,277z"/>
	<path class="st1_python-37" d="M218.1,277h-25.7c-0.4,0-0.6-0.3-0.6-0.6l0,0c0-0.4,0.3-0.6,0.6-0.6h0h25.7c0.4,0,0.6,0.3,0.6,0.6&#xA;&#9;&#9;C218.7,276.7,218.5,277,218.1,277L218.1,277z"/>
	<path class="st3_python-37" d="M176.1,285.7h-43.5c-0.4,0-0.7-0.3-0.7-0.7c0-0.4,0.3-0.7,0.7-0.7h43.5c0.4,0,0.7,0.3,0.7,0.7&#xA;&#9;&#9;C176.8,285.4,176.5,285.7,176.1,285.7L176.1,285.7z"/>
	<path class="st1_python-37" d="M201.3,285.7h-19.6c-0.4,0-0.6-0.3-0.6-0.6l0,0c0-0.4,0.3-0.6,0.6-0.6h0h19.6c0.4,0,0.6,0.3,0.6,0.6&#xA;&#9;&#9;C201.9,285.4,201.6,285.7,201.3,285.7L201.3,285.7z"/>
	<path class="st1_python-37" d="M262.7,285.7h-45.9c-0.4,0-0.6-0.3-0.6-0.6l0,0c0-0.4,0.3-0.6,0.6-0.6h0h45.9c0.4,0,0.6,0.3,0.6,0.6v0&#xA;&#9;&#9;C263.4,285.4,263.1,285.7,262.7,285.7L262.7,285.7z"/>
	<path class="st1_python-37" d="M227,225.3h-20.3c-0.4,0-0.6-0.3-0.6-0.6c0-0.4,0.3-0.6,0.6-0.6H227c0.4,0,0.6,0.3,0.6,0.6&#xA;&#9;&#9;S227.4,225.3,227,225.3z"/>
	<path class="st2_python-37" d="M235,224.6c0.4,0.2,23,0,23,0"/>
	<path class="st1_python-37" d="M241.9,225.4c-6.9,0-7.1-0.1-7.2-0.1c-0.3-0.1-0.5-0.5-0.3-0.8c0,0,0,0,0,0c0.1-0.3,0.4-0.4,0.7-0.4&#xA;&#9;&#9;c1,0.1,14.2,0.1,22.8,0c0.3,0,0.6,0.3,0.6,0.6c0,0.3-0.3,0.6-0.6,0.6c0,0,0,0,0,0C250.4,225.4,245.4,225.4,241.9,225.4z"/>
	<path class="st1_python-37" d="M223.7,208h-29.3c-0.4,0-0.6-0.3-0.6-0.6c0-0.4,0.3-0.6,0.6-0.6h29.3c0.4,0,0.6,0.3,0.6,0.6&#xA;&#9;&#9;S224.1,208,223.7,208z"/>
	<path class="st1_python-37" d="M258.8,208h-29.2c-0.4,0-0.6-0.3-0.6-0.6s0.3-0.6,0.6-0.6h29.2c0.4,0,0.6,0.3,0.6,0.6&#xA;&#9;&#9;C259.4,207.7,259.2,208,258.8,208z"/>
	<path class="st2_python-37" d="M186.5,198.8c0.4,0.1,33.8,0,33.8,0"/>
	<path class="st1_python-37" d="M196.7,199.4c-5.9,0-10.1,0-10.3-0.1c-0.3-0.1-0.6-0.4-0.5-0.8c0.1-0.3,0.4-0.5,0.7-0.5c1,0.1,24.7,0,33.7,0&#xA;&#9;&#9;l0,0c0.4,0,0.6,0.3,0.6,0.6c0,0.4-0.3,0.6-0.6,0.6c0,0,0,0,0,0C212.3,199.4,203.3,199.4,196.7,199.4z"/>
	<path class="st3_python-37" d="M228.4,199.5c-0.4,0-0.7-0.3-0.7-0.7c0-0.2,0.1-0.4,0.3-0.5c0.2-0.1,0.6-0.4,20.5-0.1c0.4,0,0.7,0.3,0.7,0.7&#xA;&#9;&#9;c0,0,0,0,0,0c0,0.4-0.3,0.7-0.7,0.7l0,0c-7.1-0.1-18.7-0.2-19.8,0C228.5,199.5,228.4,199.5,228.4,199.5z"/>
	<path class="st1_python-37" d="M200,259.8h-15.1c-0.4,0-0.6-0.3-0.6-0.6l0,0c0-0.4,0.3-0.6,0.6-0.6h0H200c0.4,0,0.6,0.3,0.6,0.6l0,0&#xA;&#9;&#9;C200.6,259.5,200.4,259.8,200,259.8L200,259.8z"/>
	<path class="st1_python-37" d="M165.3,268.4h-11.1c-0.4,0-0.6-0.3-0.6-0.6c0-0.4,0.3-0.6,0.6-0.6h11.1c0.4,0,0.6,0.3,0.6,0.6&#xA;&#9;&#9;C165.9,268.1,165.7,268.4,165.3,268.4z"/>
	<path class="st3_python-37" d="M196,268.5h-26.5c-0.4,0-0.7-0.3-0.7-0.7c0-0.4,0.3-0.7,0.7-0.7c0,0,0,0,0,0H196c0.4,0,0.7,0.3,0.7,0.7&#xA;&#9;&#9;C196.7,268.2,196.4,268.5,196,268.5C196,268.5,196,268.5,196,268.5z"/>
	<path class="st1_python-37" d="M252.5,268.4h-51.2c-0.4,0-0.6-0.3-0.6-0.6c0-0.4,0.3-0.6,0.6-0.6h51.2c0.4,0,0.6,0.3,0.6,0.6&#xA;&#9;&#9;C253.1,268.1,252.8,268.4,252.5,268.4L252.5,268.4z"/>
	<path class="st3_python-37" d="M173.2,192.7h-43.5c-0.4,0-0.7-0.3-0.7-0.7c0-0.4,0.3-0.7,0.7-0.7h43.5c0.4,0,0.7,0.3,0.7,0.7&#xA;&#9;&#9;C173.9,192.4,173.6,192.7,173.2,192.7C173.2,192.7,173.2,192.7,173.2,192.7z"/>
	<path class="st1_python-37" d="M198.4,192.7h-19.6c-0.4,0-0.6-0.3-0.6-0.6c0-0.4,0.3-0.6,0.6-0.6c0,0,0,0,0,0h19.6c0.4,0,0.6,0.3,0.6,0.6&#xA;&#9;&#9;C199,192.4,198.7,192.7,198.4,192.7C198.4,192.7,198.4,192.7,198.4,192.7z"/>
	<path class="st1_python-37" d="M259.9,192.7H214c-0.4,0-0.6-0.3-0.6-0.6c0-0.4,0.3-0.6,0.6-0.6c0,0,0,0,0,0h45.9c0.4,0,0.6,0.3,0.6,0.6&#xA;&#9;&#9;C260.5,192.4,260.3,192.7,259.9,192.7C259.9,192.7,259.9,192.7,259.9,192.7L259.9,192.7z"/>
	<path class="st1_python-37" d="M150.2,295.2h-20c-0.4,0-0.6-0.3-0.6-0.6l0,0c0-0.4,0.3-0.6,0.6-0.6h0h20c0.4,0,0.6,0.3,0.6,0.6l0,0&#xA;&#9;&#9;C150.8,294.9,150.5,295.2,150.2,295.2L150.2,295.2z"/>
	<path class="st1_python-37" d="M163.8,295.2h-5.9c-0.4,0-0.6-0.3-0.6-0.6c0-0.4,0.3-0.6,0.6-0.6c0,0,0,0,0,0h5.9c0.4,0,0.6,0.3,0.6,0.6l0,0&#xA;&#9;&#9;C164.4,294.9,164.1,295.2,163.8,295.2z"/>
	<path class="st1_python-37" d="M135.2,302.4H126c-0.4,0-0.6-0.3-0.6-0.6l0,0c0-0.4,0.3-0.6,0.6-0.6c0,0,0,0,0,0h9.1c0.4,0,0.6,0.3,0.6,0.6&#xA;&#9;&#9;l0,0C135.8,302.1,135.5,302.3,135.2,302.4z"/>
	<rect x="115.4" y="190.4" class="st1_python-37" width="2.1" height="2.1"/>
	<rect x="115.4" y="198.9" class="st1_python-37" width="2.1" height="2.1"/>
	<rect x="115.4" y="207.4" class="st1_python-37" width="2.1" height="2.1"/>
	<rect x="115.4" y="215.8" class="st1_python-37" width="2.1" height="2.1"/>
	<rect x="115.4" y="224.3" class="st1_python-37" width="2.1" height="2.1"/>
	<rect x="115.4" y="232.8" class="st1_python-37" width="2.1" height="2.1"/>
	<rect x="115.4" y="241.3" class="st1_python-37" width="2.1" height="2.1"/>
	<rect x="115.4" y="249.8" class="st1_python-37" width="2.1" height="2.1"/>
	<rect x="115.4" y="258.3" class="st1_python-37" width="2.1" height="2.1"/>
	<rect x="115.4" y="266.8" class="st1_python-37" width="2.1" height="2.1"/>
	<rect x="115.4" y="275.2" class="st1_python-37" width="2.1" height="2.1"/>
	<rect x="115.4" y="283.7" class="st1_python-37" width="2.1" height="2.1"/>
	<rect x="115.4" y="292.2" class="st1_python-37" width="2.1" height="2.1"/>
	<rect x="115.4" y="300.8" class="st1_python-37" width="2.1" height="2.1"/>
	<path class="st1_python-37" d="M354.4,296.6h-56c-0.4,0-0.6-0.3-0.6-0.6v0c0-0.4,0.3-0.6,0.6-0.6h0h56c0.4,0,0.6,0.3,0.6,0.6v0&#xA;&#9;&#9;C355.1,296.3,354.8,296.6,354.4,296.6L354.4,296.6z"/>
	<path class="st3_python-37" d="M354.4,308.1h-56c-0.4,0-0.7-0.3-0.7-0.7c0-0.4,0.3-0.7,0.7-0.7h56c0.4,0,0.7,0.3,0.7,0.7&#xA;&#9;&#9;C355.1,307.8,354.8,308.1,354.4,308.1z"/>
	<path class="st1_python-37" d="M347.4,319.4h-49c-0.4,0-0.6-0.3-0.6-0.6v0c0-0.4,0.3-0.6,0.6-0.6h0h49c0.4,0,0.6,0.3,0.6,0.6v0&#xA;&#9;&#9;C348.1,319.1,347.8,319.4,347.4,319.4L347.4,319.4z"/>
	<path class="st3_python-37" d="M337.4,330.9h-38.9c-0.4,0-0.7-0.3-0.7-0.7s0.3-0.7,0.7-0.7c0,0,0,0,0,0h38.9c0.4,0,0.7,0.3,0.7,0.7&#xA;&#9;&#9;S337.8,330.9,337.4,330.9C337.4,330.9,337.4,330.9,337.4,330.9z"/>
	<path class="st1_python-37" d="M267.1,322H115.9c-0.4,0-0.6-0.3-0.6-0.6l0,0c0-0.4,0.3-0.6,0.6-0.6c0,0,0,0,0,0h151.2c0.4,0,0.6,0.3,0.6,0.6&#xA;&#9;&#9;v0C267.7,321.7,267.5,322,267.1,322L267.1,322z"/>
	<path class="st3_python-37" d="M267.1,330.9H115.9c-0.4,0-0.7-0.3-0.7-0.7c0-0.4,0.3-0.7,0.7-0.7h151.2c0.4,0,0.7,0.3,0.7,0.7&#xA;&#9;&#9;S267.5,330.9,267.1,330.9C267.1,330.9,267.1,330.9,267.1,330.9z"/>
	<path class="st1_python-37" d="M246.4,339.6H115.9c-0.4,0-0.6-0.3-0.6-0.6l0,0c0-0.4,0.3-0.6,0.6-0.6c0,0,0,0,0,0h130.6&#xA;&#9;&#9;c0.4,0,0.6,0.3,0.6,0.6C247.1,339.3,246.8,339.6,246.4,339.6L246.4,339.6z"/>
</g>
<g id="Phyton_python-37">
	<path id="phyton_snake-2_python-37" class="st0_python-37 targetColor" d="M239.9,164.8c0,0,30.9-55.6,72.7-31.7s32.9,131.2,5.3,169.8s-98.1,56.8-141.6,41&#xA;&#9;&#9;c-55.2-20.1-27.5-74.6-47.2-79.2s-68.3,7-72.2,1.3s5.5-36,22-43.9s72.3-6.4,82.9,0.7s13.3,45.5,23.1,70.6&#xA;&#9;&#9;c13.8,35.5,93.1,1.6,110-31.9s13.8-98.6,3.5-104.1s-21.9,7.4-21.9,7.4l-34.9,0.6" style="fill: rgb(104, 225, 253);"/>
	<path class="st1_python-37" d="M50.5,281.8c-0.3,0-0.6-0.3-0.6-0.6c0-0.3,0.2-0.7,0.6-0.7c0,0,0,0,0,0c14.9-1.5,16.3-16.9,16.4-17.5&#xA;&#9;&#9;c0-0.3,0.3-0.6,0.7-0.6c0.4,0,0.6,0.3,0.6,0.7c0,0,0,0,0,0C68.1,263.3,66.6,280.2,50.5,281.8L50.5,281.8z"/>
	<circle class="st1_python-37" cx="82.2" cy="238" r="5.3"/>
	<path class="st1_python-37" d="M55.5,277.2c-1.9,0.1-3.7-0.4-5.3-1.4c-0.3-0.2-0.4-0.6-0.3-0.9c0.2-0.3,0.6-0.4,0.9-0.3c0,0,0.1,0,0.1,0.1&#xA;&#9;&#9;c3.8,2.6,11.4,0,11.5-0.1c0.3-0.1,0.7,0.1,0.8,0.4c0.1,0.3-0.1,0.7-0.4,0.8c0,0,0,0,0,0C60.4,276.7,57.9,277.1,55.5,277.2z"/>
</g>
<g id="Phyton-2_python-37">
	<rect x="53.1" y="138.1" class="st2_python-37" width="145.9" height="54.7"/>
	<path class="st1_python-37" d="M199,193.4H53.1c-0.3,0-0.6-0.3-0.6-0.6c0,0,0,0,0,0v-54.6c0-0.4,0.3-0.6,0.6-0.6H199c0.4,0,0.6,0.3,0.6,0.6&#xA;&#9;&#9;v54.7C199.6,193.1,199.4,193.4,199,193.4z M53.7,192.1h144.6v-53.4H53.7V192.1z"/>
	<path class="st0_python-37 targetColor" d="M76.7,165.2v-1.6l11.3-5v2.4l-7.5,3.4l7.6,3.4v2.4L76.7,165.2z" style="fill: rgb(104, 225, 253);"/>
	<path class="st0_python-37 targetColor" d="M93.9,160.5v1.5H94c0.2-0.2,0.3-0.4,0.5-0.6c0.2-0.2,0.5-0.4,0.8-0.6c0.3-0.2,0.7-0.3,1-0.4&#xA;&#9;&#9;c1.1-0.3,2.3-0.2,3.4,0.3c0.6,0.3,1.2,0.7,1.7,1.2c0.5,0.5,0.8,1.1,1.1,1.8c0.3,0.7,0.4,1.5,0.4,2.2c0,0.8-0.1,1.5-0.4,2.2&#xA;&#9;&#9;c-0.2,0.7-0.6,1.3-1,1.8c-1,1.1-2.4,1.7-3.8,1.7c-0.7,0-1.4-0.1-2.1-0.5c-0.6-0.3-1.1-0.7-1.5-1.3l0,0v6.8h-2.8v-16L93.9,160.5z&#xA;&#9;&#9; M100.1,165.8c0-0.4-0.1-0.8-0.2-1.2c-0.1-0.4-0.3-0.8-0.6-1.1c-0.3-0.3-0.6-0.6-1-0.8c-0.4-0.2-0.9-0.3-1.3-0.3&#xA;&#9;&#9;c-0.5,0-0.9,0.1-1.3,0.3c-0.4,0.2-0.7,0.5-1,0.8c-0.3,0.3-0.5,0.7-0.6,1.1c-0.1,0.4-0.2,0.8-0.2,1.2c0,0.4,0.1,0.8,0.2,1.2&#xA;&#9;&#9;c0.1,0.4,0.3,0.8,0.6,1.1c0.3,0.3,0.6,0.6,1,0.8c0.4,0.2,0.9,0.3,1.3,0.3c0.5,0,0.9-0.1,1.3-0.3c0.4-0.2,0.7-0.5,1-0.8&#xA;&#9;&#9;c0.3-0.3,0.4-0.7,0.6-1.1C100.1,166.6,100.1,166.2,100.1,165.8z" style="fill: rgb(104, 225, 253);"/>
	<path class="st0_python-37 targetColor" d="M103.8,160.5h3l3,7.8l0,0l2.7-7.8h2.8l-5,13c-0.2,0.4-0.4,0.9-0.6,1.3c-0.2,0.4-0.5,0.7-0.8,1&#xA;&#9;&#9;c-0.3,0.3-0.7,0.5-1.1,0.6c-0.5,0.1-1,0.2-1.5,0.2c-0.2,0-0.4,0-0.7,0c-0.2,0-0.5-0.1-0.7-0.1l0.2-2.4c0.2,0.1,0.3,0.1,0.5,0.1&#xA;&#9;&#9;c0.2,0,0.3,0,0.5,0c0.2,0,0.5,0,0.7-0.1c0.2-0.1,0.4-0.2,0.5-0.3c0.1-0.2,0.3-0.3,0.4-0.5c0.1-0.2,0.2-0.4,0.3-0.7l0.5-1.4&#xA;&#9;&#9;L103.8,160.5z" style="fill: rgb(104, 225, 253);"/>
	<path class="st0_python-37 targetColor" d="M115.3,162.6v-2.1h1.9v-3.1h2.6v3.1h2.7v2.1h-2.7v5c0,0.4,0.1,0.8,0.3,1.2c0.2,0.3,0.6,0.5,1.1,0.5&#xA;&#9;&#9;c0.2,0,0.4,0,0.6-0.1c0.2,0,0.4-0.1,0.6-0.2l0.1,2.1c-0.3,0.1-0.6,0.2-0.8,0.2c-0.3,0.1-0.6,0.1-0.9,0.1c-0.6,0-1.2-0.1-1.7-0.3&#xA;&#9;&#9;c-0.4-0.2-0.8-0.5-1.1-0.8c-0.3-0.4-0.4-0.8-0.5-1.2c-0.1-0.5-0.2-1-0.2-1.5v-5L115.3,162.6z" style="fill: rgb(104, 225, 253);"/>
	<path class="st0_python-37 targetColor" d="M130.4,160.2c0.6,0,1.2,0.1,1.8,0.4c0.5,0.2,0.9,0.6,1.2,1c0.3,0.4,0.6,0.9,0.7,1.4c0.1,0.5,0.2,1.1,0.2,1.6&#xA;&#9;&#9;v6.7h-2.7v-5.9c0-0.3,0-0.7-0.1-1c0-0.3-0.1-0.6-0.3-0.9c-0.3-0.6-0.9-1-1.6-0.9c-0.4,0-0.8,0.1-1.1,0.2c-0.3,0.2-0.6,0.4-0.8,0.7&#xA;&#9;&#9;c-0.2,0.3-0.4,0.6-0.5,0.9c-0.1,0.3-0.2,0.7-0.2,1v5.8h-2.7v-16.8h2.7v7.7l0,0c0.1-0.2,0.3-0.5,0.4-0.7c0.2-0.2,0.4-0.4,0.7-0.6&#xA;&#9;&#9;C128.9,160.4,129.6,160.2,130.4,160.2L130.4,160.2z" style="fill: rgb(104, 225, 253);"/>
	<path class="st0_python-37 targetColor" d="M136.8,165.8c0-0.8,0.1-1.6,0.5-2.3c0.6-1.4,1.7-2.4,3.1-2.9c1.5-0.5,3.1-0.5,4.5,0c1.4,0.5,2.5,1.5,3.1,2.9&#xA;&#9;&#9;c0.3,0.7,0.5,1.5,0.5,2.3c0,0.8-0.1,1.6-0.5,2.3c-0.3,0.7-0.7,1.3-1.2,1.8c-0.5,0.5-1.2,0.9-1.9,1.2c-1.5,0.6-3.1,0.6-4.5,0&#xA;&#9;&#9;c-0.7-0.3-1.3-0.7-1.9-1.2c-0.5-0.5-0.9-1.1-1.2-1.8C136.9,167.3,136.8,166.6,136.8,165.8z M139.5,165.8c0,0.4,0.1,0.8,0.2,1.2&#xA;&#9;&#9;c0.1,0.4,0.3,0.8,0.6,1.1c0.3,0.3,0.6,0.6,1,0.8c0.9,0.4,1.9,0.4,2.8,0c0.4-0.2,0.7-0.5,1-0.8c0.3-0.3,0.4-0.7,0.6-1.1&#xA;&#9;&#9;c0.1-0.4,0.2-0.8,0.2-1.2c0-0.4-0.1-0.8-0.2-1.2c-0.1-0.4-0.3-0.8-0.6-1.1c-0.3-0.3-0.6-0.6-1-0.8c-0.9-0.4-1.9-0.4-2.8,0&#xA;&#9;&#9;c-0.4,0.2-0.7,0.5-1,0.8c-0.3,0.3-0.4,0.7-0.6,1.1C139.6,164.9,139.5,165.3,139.5,165.8z" style="fill: rgb(104, 225, 253);"/>
	<path class="st0_python-37 targetColor" d="M151,160.5h2.5v1.7h0.1c0.6-1.3,1.9-2,3.3-2c0.6,0,1.2,0.1,1.8,0.4c0.5,0.2,0.9,0.6,1.2,1&#xA;&#9;&#9;c0.3,0.4,0.6,0.9,0.7,1.4c0.1,0.5,0.2,1.1,0.2,1.6v6.7h-2.7v-5.9c0-0.3,0-0.7-0.1-1c0-0.3-0.1-0.6-0.3-0.9&#xA;&#9;&#9;c-0.1-0.3-0.4-0.5-0.6-0.7c-0.3-0.2-0.6-0.3-1-0.3c-0.4,0-0.8,0.1-1.1,0.3c-0.3,0.2-0.6,0.4-0.8,0.6c-0.2,0.3-0.4,0.6-0.4,0.9&#xA;&#9;&#9;c-0.1,0.3-0.2,0.7-0.2,1.1v5.9H151V160.5z" style="fill: rgb(104, 225, 253);"/>
	<path class="st0_python-37 targetColor" d="M175.4,163.6v1.6l-11.3,5v-2.4l7.5-3.4l-7.5-3.4v-2.4L175.4,163.6z" style="fill: rgb(104, 225, 253);"/>
</g>
</svg>