<svg id="_0184_python" xmlns="http://www.w3.org/2000/svg" viewBox="0 0 500 500" data-imageid="python-84" imageName="Python" class="illustrations_image" style="width: 166px;"><defs><style>.cls-1_python-84{fill:#fff;}.cls-2_python-84,.cls-3_python-84{fill:#a5a5a5;}.cls-4_python-84{fill:#e6e6e6;}.cls-3_python-84{opacity:.2;}.cls-5_python-84{fill:#24285b;}.cls-6_python-84{fill:#000001;opacity:.08;}.cls-7_python-84{fill:#ffd200;}.cls-8_python-84{fill:#68e1fd;}</style></defs><g id="laptop_snake_python-84"><path class="cls-8_python-84 targetColor" d="m125.59,264.18l-28.45,12.57,7.69,1.33-1.86,6.63,28.45-14.08s-5.21-3.94-5.83-6.45Z" style="fill: rgb(104, 225, 253);"/><path class="cls-6_python-84" d="m125.59,264.18l-28.45,12.57,7.69,1.33-1.86,6.63,28.45-14.08s-5.21-3.94-5.83-6.45Z"/><g id="laptop_snake-2_python-84"><rect class="cls-4_python-84" x="157.74" y="101.04" width="289.42" height="181.86"/><rect class="cls-4_python-84" x="157.74" y="282.9" width="289.42" height="178.57"/><rect class="cls-2_python-84" x="189.34" y="304.05" width="228.96" height="92.37"/><rect class="cls-2_python-84" x="256.79" y="406.93" width="90.98" height="39.32"/><rect class="cls-5_python-84" x="176.61" y="117.94" width="251.36" height="143.3"/><rect class="cls-8_python-84 targetColor" x="230.39" y="194.5" width="50.81" height="5.13" style="fill: rgb(104, 225, 253);"/><rect class="cls-7_python-84" x="244.96" y="180.21" width="45.43" height="5.13"/><rect class="cls-8_python-84 targetColor" x="244.96" y="206.9" width="60.55" height="5.13" style="fill: rgb(104, 225, 253);"/><rect class="cls-1_python-84" x="211.53" y="206.9" width="22.77" height="5.13"/><rect class="cls-1_python-84" x="196.96" y="194.5" width="22.77" height="5.13"/><circle class="cls-1_python-84" cx="189.62" cy="131.69" r="3.84"/><circle class="cls-8_python-84 targetColor" cx="201.05" cy="131.69" r="3.84" style="fill: rgb(104, 225, 253);"/><circle class="cls-7_python-84" cx="211.83" cy="131.69" r="3.84"/><rect class="cls-1_python-84" x="196.96" y="155.47" width="22.77" height="5.13"/><rect class="cls-1_python-84" x="211.53" y="168.3" width="22.77" height="5.13"/><rect class="cls-7_python-84" x="244.96" y="168.3" width="45.43" height="5.13"/><rect class="cls-1_python-84" x="211.53" y="180.21" width="22.77" height="5.13"/><rect class="cls-7_python-84" x="244.96" y="231.55" width="45.43" height="5.13"/><rect class="cls-1_python-84" x="211.53" y="219.65" width="22.77" height="5.13"/><rect class="cls-7_python-84" x="244.96" y="219.65" width="45.43" height="5.13"/><rect class="cls-1_python-84" x="211.53" y="231.55" width="22.77" height="5.13"/><rect class="cls-8_python-84 targetColor" x="228.84" y="155.47" width="46.91" height="5.13" style="fill: rgb(104, 225, 253);"/><rect class="cls-8_python-84 targetColor" x="285.56" y="155.47" width="33.31" height="5.13" style="fill: rgb(104, 225, 253);"/><rect class="cls-4_python-84" x="337.95" y="117.94" width="90.02" height="143.3"/><rect class="cls-3_python-84" x="348.55" y="127.85" width="57.96" height="7.68"/><rect class="cls-3_python-84" x="359.86" y="152.97" width="57.96" height="7.68"/><rect class="cls-3_python-84" x="391.54" y="167.34" width="26.28" height="7.68"/><rect class="cls-3_python-84" x="359.61" y="167.34" width="21.68" height="7.68"/><rect class="cls-3_python-84" x="375.99" y="181.71" width="41.83" height="7.68"/><rect class="cls-3_python-84" x="360.26" y="181.71" width="10.19" height="7.68"/><rect class="cls-3_python-84" x="359.86" y="196.1" width="57.96" height="7.68"/><rect class="cls-3_python-84" x="359.86" y="210.47" width="57.96" height="7.68"/><path class="cls-6_python-84" d="m157.74,272.24v26.86s19.33-5.3,25.46,20.5c6.14,25.8,75.63,118.17,175.3,30.63,0,0,14.05-29.21,88.66-20.56v-35.52l-66.75,3.18-35.7,6.01-13.43,19.44-37.11,19.08-45.59-13.78-28.85-43.38-28.4-24.12-33.59,11.66Z"/><rect class="cls-3_python-84" x="359.86" y="224.84" width="57.96" height="7.68"/><path class="cls-8_python-84 targetColor" d="m193.46,243.47s-42.78-16.3-59.74,0c-16.96,16.3-8.48,32.48,15.9,29.69,24.39-2.79,40.3-5.44,51.43,17.89,11.13,23.33,20.67,84.29,91.71,66.8,71.04-17.49,45.59-57.25,108.68-49.83,63.09,7.42,69.98-14.31,70.51-42.41.53-28.1-24.78-41.66-24.78-41.66l-.66,37.42s-6.28,22.8-39.98,14.31c-33.7-8.48-63.22,1.16-84.07,27.04-9.78,12.14-34.8,28.38-54.77,20.82-19.97-7.57-25.6-70.92-74.21-80.06Z" style="fill: rgb(104, 225, 253);"/><path class="cls-8_python-84 targetColor" d="m256.79,101.04s-22.87-56.22,37.03-62.05c59.9-5.83,103.37,44.92,57.78,92.7,0,0,16.43-55.07-29.16-62.49-45.59-7.42-24.05,31.84-24.05,31.84h-41.61Z" style="fill: rgb(104, 225, 253);"/><circle class="cls-5_python-84" cx="157.44" cy="251.44" r="4.11"/><rect class="cls-6_python-84" x="157.74" y="101.04" width="91.55" height="54.43"/><polygon class="cls-6_python-84" points="253.99 91.43 294.59 91.43 298.4 101.04 256.79 101.04 253.99 91.43"/></g></g><g id="python_python-84"><rect class="cls-5_python-84" x="28.05" y="42.12" width="209.46" height="94.36"/><circle class="cls-1_python-84" cx="47.03" cy="56.93" r="5.67"/><circle class="cls-8_python-84 targetColor" cx="63.9" cy="56.93" r="5.67" style="fill: rgb(104, 225, 253);"/><rect class="cls-4_python-84" x="28.05" y="71.61" width="209.46" height="70.98"/><circle class="cls-7_python-84" cx="79.79" cy="56.93" r="5.67"/><path class="cls-2_python-84" d="m67.66,98.66l-10.3,3.77,10.3,3.74v3.86l-14.72-5.6v-4.02l14.72-5.6v3.83Z"/><path class="cls-2_python-84" d="m90.87,99.46c0,4.83-3.62,7.82-9.4,7.82h-4.36v5.97h-5.01v-21.65h9.37c5.78,0,9.4,3,9.4,7.85Zm-5.07,0c0-2.38-1.55-3.77-4.61-3.77h-4.08v7.51h4.08c3.06,0,4.61-1.39,4.61-3.74Z"/><path class="cls-2_python-84" d="m110.78,96.62l-7.51,17.65c-1.61,4.02-3.9,5.23-6.9,5.23-1.7,0-3.56-.56-4.64-1.51l1.76-3.43c.74.65,1.76,1.05,2.72,1.05,1.33,0,2.07-.59,2.72-2.07l.06-.15-7.2-16.76h4.98l4.67,11.29,4.7-11.29h4.64Z"/><path class="cls-2_python-84" d="m123.94,112.45c-.99.71-2.44,1.05-3.93,1.05-3.93,0-6.22-2.01-6.22-5.97v-6.84h-2.57v-3.71h2.57v-4.05h4.82v4.05h4.14v3.71h-4.14v6.77c0,1.42.77,2.2,2.07,2.2.71,0,1.42-.22,1.95-.62l1.3,3.4Z"/><path class="cls-2_python-84" d="m143.66,103.73v9.52h-4.82v-8.78c0-2.69-1.24-3.93-3.37-3.93-2.32,0-3.99,1.42-3.99,4.49v8.22h-4.82v-22.95h4.82v8.04c1.3-1.3,3.15-1.98,5.29-1.98,3.93,0,6.9,2.29,6.9,7.36Z"/><path class="cls-2_python-84" d="m146.96,104.94c0-5.01,3.86-8.56,9.15-8.56s9.12,3.55,9.12,8.56-3.83,8.56-9.12,8.56-9.15-3.56-9.15-8.56Zm13.39,0c0-2.88-1.82-4.61-4.24-4.61s-4.27,1.73-4.27,4.61,1.86,4.61,4.27,4.61,4.24-1.73,4.24-4.61Z"/><path class="cls-2_python-84" d="m185.45,103.73v9.52h-4.82v-8.78c0-2.69-1.24-3.93-3.37-3.93-2.32,0-3.99,1.42-3.99,4.49v8.22h-4.82v-16.64h4.61v1.95c1.3-1.42,3.25-2.19,5.5-2.19,3.93,0,6.9,2.29,6.9,7.36Z"/><path class="cls-2_python-84" d="m204.21,100.42v4.02l-14.72,5.6v-3.86l10.3-3.74-10.3-3.77v-3.83l14.72,5.6Z"/><rect class="cls-4_python-84" x="28.05" y="168.3" width="73.2" height="32.87" rx="10.54" ry="10.54"/><rect class="cls-4_python-84" x="28.05" y="224.68" width="73.2" height="32.87" rx="10.54" ry="10.54"/></g></svg>