<svg id="_0340_web_developer" xmlns="http://www.w3.org/2000/svg" viewBox="0 0 500 500" data-imageid="coding-5-7" imageName="Coding 5" class="illustrations_image" style="width: 166px;"><defs><style>.cls-1_coding-5-7{fill:#fff;}.cls-2_coding-5-7{fill:#f4a28c;}.cls-3_coding-5-7{fill:#a5a5a5;}.cls-4_coding-5-7{opacity:.54;}.cls-4_coding-5-7,.cls-5_coding-5-7,.cls-6_coding-5-7,.cls-7_coding-5-7,.cls-8_coding-5-7{fill:none;}.cls-9_coding-5-7{fill:#ce8172;}.cls-10_coding-5-7{fill:#e6e6e6;}.cls-5_coding-5-7{opacity:.03;}.cls-6_coding-5-7{opacity:.08;}.cls-7_coding-5-7{opacity:.28;}.cls-8_coding-5-7{opacity:.31;}.cls-11_coding-5-7{fill:#24285b;}.cls-12_coding-5-7{fill:#000001;}.cls-13_coding-5-7{fill:#ffd200;}.cls-14_coding-5-7{fill:#68e1fd;}</style></defs><g id="progress_coding-5-7"><path class="cls-10_coding-5-7" d="m441.39,185.39c-.53,0-.96-.43-.96-.96v-5.75c0-.53.43-.96.96-.96s.96.43.96.96v5.75c0,.53-.43.96-.96.96Zm0-24.91c-.53,0-.96-.43-.96-.96v-5.75c0-.53.43-.96.96-.96s.96.43.96.96v5.75c0,.53-.43.96-.96.96Zm-336.73-7.74c-.53,0-.96-.43-.96-.96v-5.75c0-.53.43-.96.96-.96s.96.43.96.96v5.75c0,.53-.43.96-.96.96Zm336.73-17.17c-.53,0-.96-.43-.96-.96v-5.75c0-.53.43-.96.96-.96s.96.43.96.96v5.75c0,.53-.43.96-.96.96Zm-336.73-7.74c-.53,0-.96-.43-.96-.96v-5.75c0-.53.43-.96.96-.96s.96.43.96.96v5.75c0,.53-.43.96-.96.96Zm336.73-17.17c-.53,0-.96-.43-.96-.96v-5.75c0-.53.43-.96.96-.96s.96.43.96.96v5.75c0,.53-.43.96-.96.96Zm-336.73-7.74c-.53,0-.96-.43-.96-.96v-5.75c0-.53.43-.96.96-.96s.96.43.96.96v5.75c0,.53-.43.96-.96.96Zm336.73-17.17c-.53,0-.96-.43-.96-.96v-1.88c0-1.23-.12-2.46-.37-3.65-.1-.52.23-1.02.75-1.13.51-.1,1.03.23,1.13.75.27,1.32.41,2.67.41,4.03v1.88c0,.53-.43.96-.96.96Zm-335.84-7.65c-.1,0-.19-.01-.29-.04-.51-.16-.78-.7-.62-1.2.61-1.92,1.51-3.74,2.66-5.39.31-.44.9-.54,1.33-.24.43.3.54.9.24,1.33-1.05,1.5-1.86,3.14-2.41,4.88-.13.41-.51.67-.91.67Zm323.55-12.05c-.11,0-.23-.02-.34-.06-1.7-.65-3.49-1.03-5.31-1.14-.53-.03-.93-.49-.9-1.01.03-.53.45-.93,1.01-.9,2.02.12,4,.55,5.88,1.26.49.19.74.74.56,1.24-.15.38-.51.62-.9.62Zm-24.76-1.24h-5.75c-.53,0-.96-.43-.96-.96s.43-.96.96-.96h5.75c.53,0,.96.43.96.96s-.43.96-.96.96Zm-24.91,0h-5.75c-.53,0-.96-.43-.96-.96s.43-.96.96-.96h5.75c.53,0,.96.43.96.96s-.43.96-.96.96Zm-24.91,0h-5.75c-.53,0-.96-.43-.96-.96s.43-.96.96-.96h5.75c.53,0,.96.43.96.96s-.43.96-.96.96Zm-24.91,0h-5.75c-.53,0-.96-.43-.96-.96s.43-.96.96-.96h5.75c.53,0,.96.43.96.96s-.43.96-.96.96Zm-24.91,0h-5.75c-.53,0-.96-.43-.96-.96s.43-.96.96-.96h5.75c.53,0,.96.43.96.96s-.43.96-.96.96Zm-24.91,0h-5.75c-.53,0-.96-.43-.96-.96s.43-.96.96-.96h5.75c.53,0,.96.43.96.96s-.43.96-.96.96Zm-24.91,0h-5.75c-.53,0-.96-.43-.96-.96s.43-.96.96-.96h5.75c.53,0,.96.43.96.96s-.43.96-.96.96Zm-24.91,0h-5.75c-.53,0-.96-.43-.96-.96s.43-.96.96-.96h5.75c.53,0,.96.43.96.96s-.43.96-.96.96Zm-24.91,0h-5.75c-.53,0-.96-.43-.96-.96s.43-.96.96-.96h5.75c.53,0,.96.43.96.96s-.43.96-.96.96Zm-24.91,0h-5.75c-.53,0-.96-.43-.96-.96s.43-.96.96-.96h5.75c.53,0,.96.43.96.96s-.43.96-.96.96Zm-24.91,0h-5.75c-.53,0-.96-.43-.96-.96s.43-.96.96-.96h5.75c.53,0,.96.43.96.96s-.43.96-.96.96Zm-24.91,0h-5.75c-.53,0-.96-.43-.96-.96s.43-.96.96-.96h5.75c.53,0,.96.43.96.96s-.43.96-.96.96Z"/><rect class="cls-10_coding-5-7" x="251.43" y="31.57" width="92.9" height="64.54"/><path class="cls-3_coding-5-7" d="m275.39,63.22c2.79,0,3.18-1.53,3.18-2.91,0-1.1-.16-2.2-.31-3.3-.16-1.1-.32-2.16-.32-3.26,0-3.61,2.36-5.15,5.7-5.15h.83v2.16h-.71c-2.32,0-3.1,1.26-3.1,3.38,0,.9.12,1.85.28,2.79.16.98.28,1.93.28,2.98.04,2.51-1.06,3.77-2.83,4.25v.08c1.77.43,2.87,1.77,2.83,4.28,0,1.06-.12,2.04-.28,2.98-.16.98-.28,1.89-.28,2.83,0,2.2.9,3.42,3.1,3.42h.71v2.16h-.83c-3.26,0-5.7-1.42-5.7-5.38,0-1.06.16-2.16.32-3.22s.31-2.12.31-3.18c0-1.22-.39-2.91-3.18-2.91v-2Z"/><path class="cls-3_coding-5-7" d="m321.43,65.3c-2.79,0-3.18,1.53-3.18,2.91,0,1.1.16,2.2.31,3.3.16,1.1.32,2.16.32,3.26,0,3.61-2.36,5.15-5.7,5.15h-.83v-2.16h.71c2.32,0,3.1-1.26,3.1-3.38,0-.9-.12-1.85-.28-2.79-.16-.98-.28-1.93-.28-2.98-.04-2.51,1.06-3.77,2.83-4.25v-.08c-1.77-.43-2.87-1.77-2.83-4.28,0-1.06.12-2.04.28-2.98.16-.98.28-1.89.28-2.83,0-2.2-.9-3.42-3.1-3.42h-.71v-2.16h.83c3.26,0,5.7,1.42,5.7,5.38,0,1.06-.16,2.16-.32,3.22-.16,1.06-.31,2.12-.31,3.18,0,1.22.39,2.91,3.18,2.91v2Z"/></g><g id="sd_coding-5-7" class="cls-5_coding-5-7"><ellipse class="cls-12_coding-5-7" cx="258.54" cy="426.69" rx="185.42" ry="41.74"/></g><g id="code_coding-5-7"><rect class="cls-11_coding-5-7" x="10.16" y="119.82" width="193.15" height="193.15"/><rect class="cls-14_coding-5-7 targetColor" x="66.61" y="204.58" width="62.04" height="6.94" style="fill: rgb(104, 225, 253);"/><rect class="cls-13_coding-5-7" x="84.4" y="185.25" width="55.47" height="6.94"/><rect class="cls-13_coding-5-7" x="137.27" y="258.53" width="28.94" height="6.94"/><rect class="cls-13_coding-5-7" x="108.04" y="239.01" width="28.94" height="6.94"/><rect class="cls-14_coding-5-7 targetColor" x="84.4" y="221.36" width="73.93" height="6.94" style="fill: rgb(104, 225, 253);"/><rect class="cls-1_coding-5-7" x="43.58" y="221.36" width="27.8" height="6.94"/><rect class="cls-1_coding-5-7" x="71.28" y="239.6" width="27.8" height="6.94"/><rect class="cls-1_coding-5-7" x="44.94" y="276.83" width="27.8" height="6.94"/><rect class="cls-1_coding-5-7" x="25.79" y="204.58" width="27.8" height="6.94"/><circle class="cls-1_coding-5-7" cx="22.8" cy="131.53" r="3.27"/><circle class="cls-14_coding-5-7 targetColor" cx="32.54" cy="131.53" r="3.27" style="fill: rgb(104, 225, 253);"/><circle class="cls-13_coding-5-7" cx="41.71" cy="131.53" r="3.27"/><rect class="cls-1_coding-5-7" x="25.79" y="151.78" width="27.8" height="6.94"/><rect class="cls-1_coding-5-7" x="43.58" y="169.14" width="27.8" height="6.94"/><rect class="cls-13_coding-5-7" x="84.4" y="169.14" width="55.47" height="6.94"/><rect class="cls-1_coding-5-7" x="43.58" y="185.25" width="27.8" height="6.94"/><rect class="cls-14_coding-5-7 targetColor" x="64.71" y="151.78" width="57.28" height="6.94" style="fill: rgb(104, 225, 253);"/><rect class="cls-1_coding-5-7" x="26.57" y="258.53" width="27.8" height="6.94"/><rect class="cls-14_coding-5-7 targetColor" x="65.49" y="258.53" width="57.28" height="6.94" style="fill: rgb(104, 225, 253);"/><rect class="cls-14_coding-5-7 targetColor" x="83.75" y="276.79" width="57.28" height="6.94" style="fill: rgb(104, 225, 253);"/><rect class="cls-14_coding-5-7 targetColor" x="133.97" y="151.78" width="40.67" height="6.94" style="fill: rgb(104, 225, 253);"/><g class="cls-7_coding-5-7"><path class="cls-12_coding-5-7" d="m91.01,312.97s12.93-78.45,96.15-77.46l-66.74,77.46h-29.41Z"/></g></g><g id="person_coding-5-7"><polygon class="cls-2_coding-5-7" points="255.26 189.49 265.33 245.43 237.54 247.5 243.1 202.64 255.26 189.49"/><g class="cls-8_coding-5-7"><path class="cls-9_coding-5-7" d="m241.93,209.62s4.4-.99,7.65-4.77c0,0-.18,7.93-8.73,15.94l1.08-11.17Z"/></g><path class="cls-2_coding-5-7" d="m235.92,186.37s-2.67,12.96-1.49,21.92c.48,3.64,3.87,6.23,7.5,5.7,4.51-.66,10.41-2.86,12.68-9.63l5.27-11.02s3.06-7.02-3.72-13.22c-6.78-6.2-19.01-1.74-20.25,6.24Z"/><path class="cls-2_coding-5-7" d="m234.66,194.62l-4.25,4.63c-1.05,1.14-.55,2.99.93,3.46l4.91,1.53-1.59-9.62Z"/><path class="cls-11_coding-5-7" d="m259.42,207.03l4.6-17.39s10.04-1.71,7.03-8.27c-3.01-6.56-7.03-2.21-7.17-9.73-.14-7.52-6.25-9.06-10.59-4.84-4.34,4.22-2.31-1.68-7.72-2.49-5.4-.81-6.84,1.6-6.97,5.71-.13,4.11-7.92-.28-9.94,4.91-2.02,5.19-2.31,10.23,11.14,11.09,13.45.86,3.8,11.92,19.62,21.01Z"/><path class="cls-2_coding-5-7" d="m248.57,199.25s.69-5.05,4.45-4.21c3.76.84,2.8,8.13-2.44,8.21l-2-4Z"/><path class="cls-14_coding-5-7 targetColor" d="m230.22,239.33s-78.43-22.65-78.05,34.32c.29,43.02,48.53,134.35,48.53,134.35h99.61s75.6-115.96,38.82-153.25c-36.78-37.29-45.17-5.29-108.91-15.41Z" style="fill: rgb(104, 225, 253);"/><polygon class="cls-11_coding-5-7" points="200.55 421.94 261.19 438.3 314.98 411 323.15 396.45 268.93 396.45 182.67 396.45 200.55 421.94"/><g class="cls-6_coding-5-7"><path class="cls-12_coding-5-7" d="m294.73,247.5s-29.4,14.75-20.97,91.15c2.37,21.52-4.83,26.92-4.83,26.92l-84.02,8.41,15.79,34.01h99.61s43.77-71.2,47.15-107.84c3.38-36.64-52.73-52.65-52.73-52.65Z"/></g><path class="cls-14_coding-5-7 targetColor" d="m247.79,421.94s20.41,7.13,13.4,16.36c-7,9.23-18.09-6.1-18.09-6.1l4.69-10.26Z" style="fill: rgb(104, 225, 253);"/><path class="cls-11_coding-5-7" d="m248.42,418.37s-82.48-42.1-89.5-19.7c-7.02,22.4,49.8,35.42,86.49,36.76l3.01-17.06Z"/><path class="cls-11_coding-5-7" d="m268.45,421.68s65.78-65.18,79.28-45.97c13.5,19.21-36.68,48.88-71.23,61.31l-8.05-15.34Z"/><path class="cls-14_coding-5-7 targetColor" d="m271.03,426.59s-19.49,17.36-8.21,22.47,13.68-12.04,13.68-12.04l-5.47-10.43Z" style="fill: rgb(104, 225, 253);"/><path class="cls-14_coding-5-7 targetColor" d="m289.35,263.36c-.32-21.93,26.15-33.61,41.96-18.41,11.6,11.16,22.9,27.88,28.49,52.68,14.07,62.46,39.39,52.9,51.77,33.2,12.38-19.7,9.92-63.03,9.92-63.03l22.48.42s19.31,112.45-63.35,116.63c-63.63,3.22-90.49-68.87-91.27-121.49Z" style="fill: rgb(104, 225, 253);"/><g class="cls-4_coding-5-7"><path class="cls-1_coding-5-7" d="m289.35,263.36c-.32-21.93,26.15-33.61,41.96-18.41,11.6,11.16,22.9,27.88,28.49,52.68,14.07,62.46,39.39,52.9,51.77,33.2,12.38-19.7,9.92-63.03,9.92-63.03l22.48.42s19.31,112.45-63.35,116.63c-63.63,3.22-90.49-68.87-91.27-121.49Z"/></g><rect class="cls-11_coding-5-7" x="436.86" y="222.44" width="9.06" height="79.63"/><polygon class="cls-13_coding-5-7" points="209.05 386.34 202.02 322.3 309.55 322.3 298.82 389.62 300.35 398.24 207.9 398.98 209.05 386.34"/><circle class="cls-1_coding-5-7" cx="256.84" cy="356.8" r="9.21"/><path class="cls-14_coding-5-7 targetColor" d="m189.17,239.7c-9.85-5.4-22.25-2.22-28.98,6.78-16.36,21.87-51.82,73.86-50.19,111.58,2.11,48.96,108.89,42.15,108.89,42.15l-2.11-18.52s-64.69-4.64-46.85-37.14c12.13-22.09,50.67-87.63,19.24-104.86Z" style="fill: rgb(104, 225, 253);"/><g class="cls-4_coding-5-7"><path class="cls-1_coding-5-7" d="m189.17,239.7c-9.85-5.4-22.25-2.22-28.98,6.78-16.36,21.87-51.82,73.86-50.19,111.58,2.11,48.96,108.89,42.15,108.89,42.15l-2.11-18.52s-64.69-4.64-46.85-37.14c12.13-22.09,50.67-87.63,19.24-104.86Z"/></g><path class="cls-2_coding-5-7" d="m427.14,267.9s-2.53-19.38,14.64-17.13c17.16,2.25,17.03,16.04,2.18,17.44l-16.82-.32Z"/><rect class="cls-13_coding-5-7" x="391.7" y="167.49" width="98.15" height="62.74"/><path class="cls-1_coding-5-7" d="m427.95,213.28c-.5,0-1-.16-1.42-.5l-14.89-11.77c-.55-.43-.87-1.09-.87-1.79,0-.7.31-1.36.86-1.8l14.89-11.98c.99-.8,2.43-.64,3.23.35.79.99.64,2.44-.35,3.23l-12.64,10.17,12.63,9.98c1,.79,1.17,2.23.38,3.23-.45.57-1.13.87-1.8.87Z"/><path class="cls-1_coding-5-7" d="m454.91,213.28c-.68,0-1.35-.3-1.8-.87-.79-1-.62-2.44.38-3.23l12.63-9.98-12.64-10.17c-.99-.8-1.14-2.24-.35-3.23.8-.99,2.24-1.14,3.23-.35l14.89,11.98c.54.44.86,1.1.86,1.8,0,.7-.32,1.36-.87,1.79l-14.89,11.77c-.42.33-.92.5-1.42.5Z"/><path class="cls-1_coding-5-7" d="m435.18,213.28c-.32,0-.64-.07-.95-.21-1.16-.53-1.66-1.89-1.14-3.05l10.85-23.75c.53-1.15,1.89-1.66,3.05-1.14,1.16.53,1.66,1.89,1.14,3.05l-10.85,23.75c-.39.85-1.22,1.34-2.09,1.34Z"/><path class="cls-2_coding-5-7" d="m217.27,385.99s16.39-5.7,20.33,1.05c3.94,6.75-1.97,16.07-18.71,13.17l-1.62-14.22Z"/></g></svg>